# xmcd
#
# Track frame offsets: 
#        182
#        14832
#        45302
#        64627
#        91157
#        132257
#        145962
#        164787
#        187075
#        220425
#
# Disc length: 3149 seconds
#
# Revision: 0
# Processed by: cddbd v1.5.1PL2 Copyright (c) Steve Scherf et al.
# Submitted via: ExactAudioCopy v0.95b3
#
DISCID=970c4b0a
DTITLE=Marva WRIGHT - Glory Glory Hallelujah
DYEAR=1992
DGENRE=Blues
TTITLE0=GLITTER QUEEN
TTITLE1=AIN'T NOBODY'S BUSINESS
TTITLE2=BEFORE I MET YOU
TTITLE3=FEEL SO GOOD
TTITLE4=SINCE HE CAME
TTITLE5=BEEN AND GONE
TTITLE6=COME HOME FOR CHRISTMAS
TTITLE7=FURTHER UP THE ROAD
TTITLE8=I'M NOT COMING BACK
TTITLE9=GLORY GLORY HALLELUJAH
EXTD=
EXTT0=
EXTT1=
EXTT2=
EXTT3=
EXTT4=
EXTT5=
EXTT6=
EXTT7=
EXTT8=
EXTT9=
PLAYORDER=
